<mxfile host="app.diagrams.net" agent="Mozilla/5.0 (Windows NT 10.0; Win64; x64; rv:132.0) Gecko/20100101 Firefox/132.0" version="24.8.3">
  <diagram name="Сторінка-1" id="bjdWRvOdS1B8MLk4HICp">
    <mxGraphModel dx="604" dy="550" grid="1" gridSize="10" guides="1" tooltips="1" connect="1" arrows="1" fold="1" page="1" pageScale="1" pageWidth="827" pageHeight="1169" math="0" shadow="0">
      <root>
        <mxCell id="0" />
        <mxCell id="1" parent="0" />
        <mxCell id="qjfKwLdPa9sdiQzf08QI-3" style="edgeStyle=orthogonalEdgeStyle;rounded=0;orthogonalLoop=1;jettySize=auto;html=1;exitX=0.5;exitY=1;exitDx=0;exitDy=0;entryX=0.5;entryY=0;entryDx=0;entryDy=0;" edge="1" parent="1" source="qjfKwLdPa9sdiQzf08QI-1" target="qjfKwLdPa9sdiQzf08QI-2">
          <mxGeometry relative="1" as="geometry" />
        </mxCell>
        <mxCell id="qjfKwLdPa9sdiQzf08QI-1" value="int power(int base, int n)" style="ellipse;whiteSpace=wrap;html=1;" vertex="1" parent="1">
          <mxGeometry x="70" y="50" width="150" height="60" as="geometry" />
        </mxCell>
        <mxCell id="qjfKwLdPa9sdiQzf08QI-2" value="return pow(base, n)" style="ellipse;whiteSpace=wrap;html=1;" vertex="1" parent="1">
          <mxGeometry x="72.5" y="150" width="145" height="60" as="geometry" />
        </mxCell>
        <mxCell id="qjfKwLdPa9sdiQzf08QI-4" style="edgeStyle=orthogonalEdgeStyle;rounded=0;orthogonalLoop=1;jettySize=auto;html=1;exitX=0.5;exitY=1;exitDx=0;exitDy=0;entryX=0.5;entryY=0;entryDx=0;entryDy=0;" edge="1" parent="1" source="qjfKwLdPa9sdiQzf08QI-5" target="qjfKwLdPa9sdiQzf08QI-6">
          <mxGeometry relative="1" as="geometry" />
        </mxCell>
        <mxCell id="qjfKwLdPa9sdiQzf08QI-5" value="double power(double base, int n)" style="ellipse;whiteSpace=wrap;html=1;" vertex="1" parent="1">
          <mxGeometry x="290" y="50" width="190" height="60" as="geometry" />
        </mxCell>
        <mxCell id="qjfKwLdPa9sdiQzf08QI-6" value="return pow(base, 1.0/n)" style="ellipse;whiteSpace=wrap;html=1;" vertex="1" parent="1">
          <mxGeometry x="312.5" y="150" width="145" height="60" as="geometry" />
        </mxCell>
        <mxCell id="qjfKwLdPa9sdiQzf08QI-12" style="edgeStyle=orthogonalEdgeStyle;rounded=0;orthogonalLoop=1;jettySize=auto;html=1;exitX=0.5;exitY=1;exitDx=0;exitDy=0;" edge="1" parent="1" source="qjfKwLdPa9sdiQzf08QI-7" target="qjfKwLdPa9sdiQzf08QI-9">
          <mxGeometry relative="1" as="geometry" />
        </mxCell>
        <mxCell id="qjfKwLdPa9sdiQzf08QI-7" value="Start" style="ellipse;whiteSpace=wrap;html=1;" vertex="1" parent="1">
          <mxGeometry x="217.5" y="250" width="112.5" height="60" as="geometry" />
        </mxCell>
        <mxCell id="qjfKwLdPa9sdiQzf08QI-14" style="edgeStyle=orthogonalEdgeStyle;rounded=0;orthogonalLoop=1;jettySize=auto;html=1;exitX=0.5;exitY=1;exitDx=0;exitDy=0;entryX=0.5;entryY=0;entryDx=0;entryDy=0;" edge="1" parent="1" source="qjfKwLdPa9sdiQzf08QI-9" target="qjfKwLdPa9sdiQzf08QI-10">
          <mxGeometry relative="1" as="geometry" />
        </mxCell>
        <mxCell id="qjfKwLdPa9sdiQzf08QI-9" value="output power(3, 4)" style="shape=parallelogram;perimeter=parallelogramPerimeter;whiteSpace=wrap;html=1;fixedSize=1;" vertex="1" parent="1">
          <mxGeometry x="203.75" y="330" width="140" height="50" as="geometry" />
        </mxCell>
        <mxCell id="qjfKwLdPa9sdiQzf08QI-17" style="edgeStyle=orthogonalEdgeStyle;rounded=0;orthogonalLoop=1;jettySize=auto;html=1;exitX=0.5;exitY=1;exitDx=0;exitDy=0;entryX=0.5;entryY=0;entryDx=0;entryDy=0;" edge="1" parent="1" source="qjfKwLdPa9sdiQzf08QI-10" target="qjfKwLdPa9sdiQzf08QI-11">
          <mxGeometry relative="1" as="geometry" />
        </mxCell>
        <mxCell id="qjfKwLdPa9sdiQzf08QI-10" value="output power(2.25, 2)" style="shape=parallelogram;perimeter=parallelogramPerimeter;whiteSpace=wrap;html=1;fixedSize=1;" vertex="1" parent="1">
          <mxGeometry x="203.75" y="400" width="146.25" height="50" as="geometry" />
        </mxCell>
        <mxCell id="qjfKwLdPa9sdiQzf08QI-11" value="Finish" style="ellipse;whiteSpace=wrap;html=1;" vertex="1" parent="1">
          <mxGeometry x="220.63" y="470" width="112.5" height="60" as="geometry" />
        </mxCell>
      </root>
    </mxGraphModel>
  </diagram>
</mxfile>
